<svg width="162" height="140" viewBox="0 0 162 140" fill="none" xmlns="http://www.w3.org/2000/svg">
<g clip-path="url(#clip0_4318_31728)">
<path opacity="0.2" d="M52.5182 2L155.808 14.7365L155.267 19.2012L159.131 19.7686L158.613 23.3127L158.485 24.1852L160 24.4075L138.552 171L29 154.929L38.4016 90.6761L41.9652 89.0936L52.5182 2Z" fill="#4D4D4D"/>
<path d="M46.7031 111.298L147.355 121.054L157.932 9.84575L57.2816 0.0898438L46.7031 111.298Z" fill="white"/>
<path d="M147.353 121.055L46.9766 111.325L60.1484 1.68359L157.667 12.6186L147.353 121.055Z" fill="#E1E1E3"/>
<path d="M47.5386 113.475L147.945 125.539L161.272 14.6242L60.8654 2.56002L47.5386 113.475Z" fill="white"/>
<path d="M160.872 18.0934L159.712 27.7543L150.598 46.3639L51.0469 84.4579L51.2248 82.9793L57.5108 78.9413L66.2776 5.96875L160.872 18.0934Z" fill="#E1E1E3"/>
<path d="M58.6859 80.3433L67.41 7.72656L162.241 19.1196L145.09 161.867L38.2734 149.034L45.7902 86.4652L58.6859 80.3433Z" fill="#E3A251"/>
<path d="M128.749 25.6207L150.859 28.2773L151.564 22.4171L129.453 19.7605L128.749 25.6207Z" fill="#EAAC66"/>
<path d="M63.294 137.432L121.633 144.441L124.321 122.065L65.9826 115.055L63.294 137.432Z" fill="white"/>
<path d="M81.4471 121.686L73.9453 120.777L73.7306 122.55L81.2325 123.459L81.4471 121.686Z" fill="#E1E1E3"/>
<path d="M117.403 129.725L73.5078 124.41L73.2553 126.496L117.15 131.811L117.403 129.725Z" fill="#E1E1E3"/>
<path d="M116.973 133.327L73.0781 128.012L72.8256 130.097L116.72 135.412L116.973 133.327Z" fill="#E1E1E3"/>
<path d="M72.6119 131.645L72.3594 133.73L95.8572 136.576L96.1097 134.49L72.6119 131.645Z" fill="#E1E1E3"/>
<path opacity="0.2" d="M58.933 122.08L43.963 60.1741C43.6553 58.9032 42.3773 58.1234 41.1065 58.4299L1.8112 67.9319C0.54033 68.2395 -0.240653 69.5175 0.0670067 70.7884L15.0358 132.694C15.3435 133.965 16.6215 134.745 17.8923 134.438L57.1876 124.937C58.4597 124.63 59.2407 123.351 58.933 122.08ZM33.6185 67.5213L12.6266 72.5976C11.8326 72.7893 11.0327 72.3018 10.841 71.5078C10.6493 70.7138 11.1368 69.9151 11.9308 69.7222L32.9227 64.6458C33.7167 64.4541 34.5154 64.9417 34.7083 65.7357C34.9 66.5297 34.4125 67.3296 33.6185 67.5213Z" fill="#4D4D4D"/>
<path d="M61.2157 121.664L50.0902 58.9538C49.8619 57.6663 48.6336 56.8084 47.3462 57.0368L7.53971 64.0988C6.25227 64.3272 5.39437 65.5554 5.62275 66.8429L16.7482 129.553C16.9766 130.841 18.2049 131.699 19.4923 131.47L59.2987 124.408C60.5862 124.18 61.4441 122.952 61.2157 121.664ZM39.3115 65.6489L18.0463 69.4213C17.2416 69.5645 16.4737 69.0273 16.3317 68.2226C16.1885 67.418 16.7257 66.6512 17.5304 66.508L38.7956 62.7356C39.6002 62.5925 40.3682 63.1297 40.5102 63.9343C40.6534 64.739 40.1162 65.5069 39.3115 65.6489Z" fill="white"/>
<path d="M45.2413 83.8269C46.5394 91.1469 41.6582 98.1331 34.3383 99.4324C27.0183 100.732 20.0321 95.8493 18.7328 88.5294C17.4335 81.2095 22.3159 74.2232 29.6358 72.9239C36.9558 71.6258 43.942 76.507 45.2413 83.8269Z" fill="#EEEEEE"/>
<mask id="mask0_4318_31728" style="mask-type:alpha" maskUnits="userSpaceOnUse" x="26" y="80" width="13" height="13">
<rect x="26.4844" y="82.4102" width="9.99583" height="9.99583" transform="rotate(-10.0519 26.4844 82.4102)" fill="#D9D9D9"/>
</mask>
<g mask="url(#mask0_4318_31728)">
<path d="M32.2764 86.4571C31.8253 86.537 31.4107 86.4449 31.0325 86.1805C30.6543 85.9162 30.4252 85.5585 30.3452 85.1074C30.2653 84.6563 30.3574 84.2417 30.6217 83.8635C30.886 83.4853 31.2438 83.2562 31.6949 83.1763C32.146 83.0963 32.5606 83.1885 32.9388 83.4528C33.317 83.7171 33.5461 84.0748 33.626 84.5259C33.706 84.977 33.6138 85.3916 33.3495 85.7698C33.0852 86.148 32.7275 86.3771 32.2764 86.4571ZM29.4318 89.4992L29.3736 89.1711C29.3324 88.9387 29.3544 88.7145 29.4395 88.4985C29.5245 88.2825 29.6571 88.1057 29.8371 87.9681C30.2234 87.6811 30.6258 87.4458 31.0445 87.2623C31.4631 87.0788 31.898 86.9471 32.3491 86.8672C32.8002 86.7872 33.2539 86.7614 33.7101 86.7898C34.1663 86.8182 34.6251 86.9008 35.0864 87.0376C35.3028 87.105 35.4881 87.2254 35.6422 87.399C35.7964 87.5726 35.894 87.7756 35.9352 88.008L35.9934 88.3361C36.0334 88.5617 35.9873 88.769 35.8551 88.9581C35.723 89.1472 35.5441 89.2617 35.3186 89.3017L30.3974 90.174C30.1718 90.214 29.9645 90.1679 29.7754 90.0358C29.5863 89.9036 29.4718 89.7248 29.4318 89.4992ZM30.252 89.3538L35.1732 88.4815L35.115 88.1534C35.1017 88.0782 35.0708 88.0132 35.0223 87.9584C34.9738 87.9035 34.9158 87.8644 34.8482 87.8412C34.4464 87.722 34.0493 87.6497 33.6571 87.624C33.2648 87.5984 32.8773 87.6195 32.4945 87.6874C32.1117 87.7552 31.7406 87.8686 31.381 88.0275C31.0214 88.1864 30.6735 88.3908 30.3371 88.6408C30.2816 88.6859 30.2406 88.7425 30.2139 88.8107C30.1872 88.8789 30.1805 88.9506 30.1938 89.0257L30.252 89.3538ZM32.131 85.6369C32.3566 85.5969 32.5354 85.4823 32.6676 85.2932C32.7997 85.1041 32.8458 84.8968 32.8058 84.6713C32.7659 84.4457 32.6513 84.2669 32.4622 84.1347C32.2731 84.0026 32.0658 83.9565 31.8402 83.9965C31.6147 84.0364 31.4358 84.151 31.3037 84.3401C31.1715 84.5292 31.1255 84.7365 31.1654 84.962C31.2054 85.1876 31.32 85.3665 31.5091 85.4986C31.6981 85.6308 31.9055 85.6768 32.131 85.6369Z" fill="#C3C3C3"/>
</g>
<path d="M46.505 103.576L24.3672 107.504L24.7806 109.834L46.9184 105.906L46.505 103.576Z" fill="#E1E1E3"/>
<path d="M53.4126 108.657L20.7891 114.445L21.2025 116.775L53.826 110.987L53.4126 108.657Z" fill="#E1E1E3"/>
<path d="M46.704 118.262L29.2266 121.363L29.4333 122.528L46.9107 119.427L46.704 118.262Z" fill="#EEEEEE"/>
</g>
<defs>
<clipPath id="clip0_4318_31728">
<rect width="162" height="140" fill="white"/>
</clipPath>
</defs>
</svg>
