<svg width="256" height="256" viewBox="0 0 256 256" fill="none" xmlns="http://www.w3.org/2000/svg">
<g clip-path="url(#clip0_4431_3475)">
<rect width="256" height="256" rx="64" fill="#194987"/>
<path d="M225.628 151.638C238.32 97.8877 205.036 44.0256 151.285 31.3336C97.535 18.6417 43.6728 51.926 30.9809 105.676C18.2889 159.427 51.5733 213.289 105.324 225.981C159.074 238.673 212.936 205.388 225.628 151.638Z" fill="white"/>
<path d="M132 90C132 114.299 129.985 134 127.5 134C125.015 134 123 114.299 123 90C123 65.7006 125.015 46 127.5 46C129.985 46 132 65.7006 132 90Z" fill="#A09A99"/>
<path d="M160.959 128.947C146.388 133.052 133.473 135.063 132.116 133.435C130.759 131.806 141.47 127.159 156.041 123.053C170.612 118.948 183.527 116.937 184.884 118.565C186.241 120.192 175.53 124.841 160.959 128.947Z" fill="#A09A99"/>
<path d="M143.87 128.656C143.752 137.133 136.453 143.912 127.479 143.883C119.23 143.853 112.837 137.47 113.003 129.441C113.181 121.123 121.474 112.897 129.583 113.001C137.529 113.105 143.989 120.187 143.87 128.656Z" fill="#FF7F00"/>
</g>
<defs>
<clipPath id="clip0_4431_3475">
<rect width="256" height="256" rx="64" fill="white"/>
</clipPath>
</defs>
</svg>
