<svg width="85" height="80" viewBox="0 0 85 80" fill="none" xmlns="http://www.w3.org/2000/svg">
<path d="M51.1182 0.0135395C51.1182 0.0135395 62.0087 -0.687678 64.8142 8.00261C67.6196 16.6933 79.2219 18.8581 73.4358 25.2006C74.9503 34.0438 62.144 40.4772 50.1451 35.9341C38.1459 31.3914 34.3449 31.0553 34.0432 21.4193C33.7419 11.7836 40.1372 0.0135395 51.1182 0.0135395Z" fill="#2D1756"/>
<path d="M42.5673 47.8699C41.4185 46.9444 39.7823 45.9462 37.6521 45.4111C33.9966 44.4929 30.3943 45.4745 27.716 47.8237C18.0428 56.3077 4.60347 81.5651 5.1749 85.0936C5.81963 89.0744 13.5385 87.0294 21.8379 79.0847C28.665 72.5493 38.7238 56.6115 43.1138 51.6564C44.0195 50.6334 43.76 48.8314 42.5673 47.8699Z" fill="#47C7F4"/>
<path d="M38.4191 58.3252C38.5624 58.8503 30.088 68.9125 30.2256 69.4616C25.609 73.5013 26.8388 79.321 12.3047 83.4336C12.7834 81.8233 22.7236 69.1731 38.4191 58.3252Z" fill="#00A2DB"/>
<path d="M6.39607 26.7007V25.1523H13.2422V26.7007H13.0963H6.83846H6.39607Z" fill="#2D1756"/>
<path d="M6.39607 23.5312H13.2422V25.1452H6.39607V23.5312Z" fill="#2D1756"/>
<path d="M4.05813 8.99525C5.42421 7.73027 7.52005 7.05251 9.79879 7.14525C12.0995 7.05178 14.1869 7.72991 15.5526 8.99525C17.1654 10.4886 17.8611 12.6579 17.4139 14.7971C17.1243 16.1823 16.2927 17.2611 15.4119 18.4033C14.3387 19.7954 13.2288 21.2353 13.2288 23.2524V23.5369H12.4818H7.37819H6.38269V23.2524C6.38269 21.2353 5.27282 19.7954 4.19961 18.4033C3.31883 17.2611 2.48717 16.1819 2.19761 14.7971C1.75007 12.6571 2.44575 10.4886 4.05813 8.99525Z" fill="#FF7F00"/>
<path d="M7.21211 26.4492H12.6562C12.481 26.8576 11.866 27.7366 9.8189 27.7366C7.76374 27.7366 7.31144 26.8363 7.21211 26.4492Z" fill="#2D1756"/>
<path d="M8.69495 23.5329C8.69495 23.5329 8.69495 17.0218 8.69495 14.6656C8.69495 12.3093 6.15412 11.9039 5.31365 13.4321C4.43837 15.0233 6.74241 16.6534 9.9265 16.6534C13.1106 16.6534 15.4146 15.0237 14.5393 13.4321C13.6989 11.9039 11.158 12.3093 11.158 14.6656C11.158 17.0218 11.158 23.5329 11.158 23.5329" stroke="white" stroke-miterlimit="10" stroke-linecap="round" stroke-linejoin="round"/>
<path d="M32.3156 82.5779C32.3156 82.5779 29.8294 56.8226 28.3831 47.1676C37.8928 42.8781 42.4415 41.3965 50.5705 41.3438C58.6995 41.3965 64.6836 42.8781 74.1933 47.1676C72.747 56.8226 68.6942 82.5779 68.6942 82.5779L74.4062 124.001H50.5705H26.2455L32.3156 82.5779Z" fill="url(#paint0_linear_4398_21588)"/>
<path d="M81.8646 93.7507C81.3203 93.7564 80.7674 93.7583 80.2013 93.7524C67.6896 93.6644 64.4858 77.2311 64.1875 62.1289C65.6241 62.9997 85.0798 75.1549 81.8646 93.7507Z" fill="#00A2DB"/>
<path d="M61.0469 40.3164C61.0469 40.3164 57.3198 48.3957 50.811 48.3957C44.3022 48.3957 40.8492 40.3164 40.8492 40.3164H61.0469Z" fill="#F2AC8C"/>
<path d="M68.9735 45.703C70.4429 45.5732 72.3577 45.6553 74.4253 46.3969C77.9734 47.6692 80.4193 50.4898 81.3367 53.9325C84.6498 66.3657 84.4229 94.8294 81.9844 97.4426C79.2332 100.39 69.7205 94.2199 69.7205 88.6365C69.7205 79.1852 67.3006 55.1051 66.4122 48.5445C66.2289 47.1901 67.4476 45.8375 68.9735 45.703Z" fill="#FF9284"/>
<path d="M11.5737 48.1719C10.6515 58.5619 12.942 68.6667 14.123 73.0023C14.8407 75.6367 14.818 78.4369 13.9445 81.024C12.9567 83.9495 10.8231 86.9156 6.23958 87.0777C0.239415 85.4205 4.55206 58.3159 6.38766 48.1719H11.5737Z" fill="#FFB792"/>
<path d="M60.4226 42.3047C60.4226 42.3047 72.0076 44.8376 75.8595 46.3786C79.7115 47.9196 82.8523 50.4085 84.3928 66.2316C85.9337 82.055 83.3478 92.8952 83.3478 92.8952C83.3478 92.8952 79.5198 90.448 69.7124 88.6358C69.7124 88.6358 68.1301 70.6306 66.5426 59.0082C64.9555 47.3859 60.4226 42.3047 60.4226 42.3047Z" fill="#47C7F4"/>
<path d="M15.9405 86.1549C15.9405 86.1549 20.7165 77.9591 15.4966 69.0925L13.6497 70.0085L15.0902 68.3099L14.2556 67.5977L13.1116 68.9165C13.1116 68.9165 16.4009 86.314 6.24422 87.0775C10.172 87.2989 15.9405 86.1549 15.9405 86.1549Z" fill="white"/>
<path d="M1.09493 40.7426L1.10627 40.7444C1.10627 38.9259 2.75567 39.5696 2.75567 39.5696C2.75567 39.5696 2.50315 38.4597 3.79078 38.2793C3.21495 35.3722 3.71344 33.0383 3.71344 33.0383C3.71344 33.0383 4.14301 30.5461 4.67412 31.0732C5.20523 31.6003 4.97543 35.1346 5.25949 36.0254C6.00612 38.3655 6.62958 39.9207 8.5887 41.6707C6.86636 36.3355 8.84639 34.2406 9.61318 36.5264C10.3924 38.8489 10.9404 42.2722 11.7259 44.3216C12.0931 45.2798 12.106 46.5506 12.0158 47.632C11.8549 49.56 11.2098 51.2194 9.39656 51.6025C8.8233 51.7235 8.47691 51.6659 8.47691 51.6659C8.47691 51.6659 6.15638 49.5238 4.28083 47.3325C2.3228 45.2944 0.489765 43.5625 0.0407604 41.9529C-0.145073 41.2873 0.41354 40.6253 1.09493 40.7426Z" fill="#FFB792"/>
<path d="M66.8046 62.5938L68.9844 80.7679" stroke="#3288A1" stroke-miterlimit="10" stroke-linecap="round" stroke-linejoin="round"/>
<path d="M30.2295 59.2695C30.2295 59.2695 30.0166 65.0637 31.2969 72.0297" stroke="#3288A1" stroke-miterlimit="10" stroke-linecap="round" stroke-linejoin="round"/>
<path d="M15.3888 71.6367H32.0078C35.3215 71.6367 38.0078 74.323 38.0078 77.6367V102.654C38.0078 105.968 35.3215 108.654 32.0078 108.654H15.3888C12.0751 108.654 9.38881 105.968 9.38881 102.654V77.6367C9.38881 74.323 12.0751 71.6367 15.3888 71.6367Z" fill="url(#paint1_linear_4398_21588)"/>
<path d="M36.1538 15.5395C39.3262 15.1777 39.1385 18.4643 39.1385 18.4643L38.0763 25.5758C33.0837 24.7522 33.2498 15.8705 36.1538 15.5395Z" fill="#F2AC8C"/>
<path d="M62.8488 19.9411C59.9605 18.5797 59.0827 21.7522 59.0827 21.7522L57.8049 28.8282C62.7979 29.6518 65.493 21.1877 62.8488 19.9411Z" fill="#F2AC8C"/>
<path d="M58.2266 22.9414V42.253C58.2266 46.486 54.253 47.078 50.5627 47.078C46.4751 47.078 42.8988 46.4856 42.8988 42.253V22.9414H58.2266Z" fill="#FFB792"/>
<path d="M42.874 38.0141C42.874 38.0141 51.2861 44.188 57.7969 29.9844C43.4075 29.9844 42.7264 31.3179 42.7264 31.3179L42.874 38.0141Z" fill="#F2AC8C"/>
<path d="M52.1691 1.513C52.1691 1.513 64.7504 3.58844 62.0179 20.1545C61.0674 25.916 58.0285 30.4423 54.8935 32.536C49.6011 36.0707 43.9063 37.2877 39.6083 30.513C36.805 26.0946 35.9052 21.7652 36.8556 16.0037C39.5878 -0.562428 52.1691 1.513 52.1691 1.513Z" fill="#FFB792"/>
<path d="M64.0884 20.601C64.0884 20.601 50.2693 19.9856 46.976 0.746218C59.2094 -2.04583 67.2578 7.36914 64.0884 20.601Z" fill="#2D1756"/>
<path d="M37.2175 12.5362C37.2175 12.5362 45.6361 12.5226 48.1406 0.910156C48.1406 0.910156 40.1949 1.13962 37.2175 12.5362Z" fill="#2D1756"/>
<path d="M46.6708 47.2476C46.7073 47.3374 46.3822 48.9788 46.9161 49.559C45.2281 48.9788 44.9396 49.559 41.7656 52.4414C42.009 52.1327 40.2041 49.7773 46.6708 47.2476Z" fill="#00A2DB"/>
<path d="M47.5402 47.2476C47.5036 47.3374 47.8287 48.9788 47.2948 49.559C48.9828 48.9788 49.2714 49.559 52.4453 52.4414C52.2019 52.1327 54.0068 49.7773 47.5402 47.2476Z" fill="#00A2DB"/>
<path d="M46.4809 48.5687C46.4809 48.5687 46.0289 55.2388 45.3247 58.7475C45.3247 58.7475 46.6421 59.226 47.9972 58.8607C47.9972 58.8607 47.2112 60.0564 44.7547 59.2745C44.7547 59.2745 46.0976 52.3832 46.4809 48.5687Z" fill="#3288A1"/>
<path d="M46.8375 47.5379C45.5389 46.3875 44.5026 43.3315 44.3157 42.0508C42.873 40.031 42.873 38.8768 42.873 38.8768C42.873 38.8768 42.3821 37.7699 41.9289 38.384C41.4765 38.9988 39.2712 43.1201 39.4026 45.388C39.5333 47.6558 40.2322 50.7094 41.1638 51.9818C42.0955 53.2535 42.642 50.9544 43.207 50.0552C43.9418 48.8885 44.9583 47.6155 46.8375 47.5379Z" fill="white"/>
<path d="M57.6734 38.7019C57.7564 40.1953 55.8181 42.7151 52.8528 44.4841C49.8874 46.2531 47.332 46.9695 47.0077 47.7079C48.4154 47.9425 49.687 48.5609 50.7342 50.703C51.7345 52.7482 51.7245 52.8141 55.1475 50.703C58.5712 48.5912 61.6324 43.7457 61.625 42.1312C61.6176 40.5172 58.9343 37.395 57.6171 37.6599L57.6734 38.7019Z" fill="white"/>
<defs>
<linearGradient id="paint0_linear_4398_21588" x1="50.3259" y1="41.3437" x2="50.3259" y2="124.001" gradientUnits="userSpaceOnUse">
<stop stop-color="#47C7F4"/>
<stop offset="1" stop-color="#47C7F4"/>
</linearGradient>
<linearGradient id="paint1_linear_4398_21588" x1="23.5448" y1="87.0627" x2="23.6983" y2="108.654" gradientUnits="userSpaceOnUse">
<stop stop-color="#F4F4F4"/>
<stop offset="1" stop-color="#C6C6C6"/>
</linearGradient>
</defs>
</svg>
