<svg width="931" height="379" viewBox="0 0 931 379" fill="none" xmlns="http://www.w3.org/2000/svg">
<path d="M868 379L211.756 377.527L182.181 377.466L143.527 377.387L139.722 377.38H139.718L127.463 377.354L120.506 377.34L108.354 377.315L103.098 377.304L1.01314 377.092C1.01314 377.092 -1.64817 352.826 1.65579 319.553C2.56619 310.433 3.91829 300.637 5.89837 290.476C6.5621 287.089 7.29257 283.662 8.09731 280.205C9.48793 274.243 11.1046 268.199 12.9857 262.129C13.12 261.689 13.2578 261.246 13.3953 260.804C15.506 254.114 17.9345 247.4 20.73 240.739C44.6578 183.664 95.3052 130.567 201.068 131.637C428.308 133.934 410.868 8.17722 569.935 0.129343C634.716 -3.14824 674.214 56.1919 662.564 140.969C642.858 284.378 865.115 180.413 868 379Z" fill="#D5F8FF"/>
<g opacity="0.2">
<path d="M349.053 338.193C350.335 352.856 358.616 357.385 362.256 356.994C365.898 356.606 387.194 348.475 387.655 351.458C388.119 354.441 375.301 364.189 366.325 364.645C366.325 364.645 383.274 383.336 394.535 377.941C405.8 372.547 406.759 363.997 413.781 360.789C420.803 357.583 426.795 357.591 423.897 360.863C420.999 364.132 408.29 367.31 404.277 374.415C403.329 376.09 402.404 377.638 401.696 379.002L425.411 378.955C432.931 375.219 439.266 370.064 439.738 364.509C439.775 364.084 439.809 363.679 439.84 363.292C440.57 354.744 440.57 354.744 440.57 354.744C440.57 354.744 452.749 340.538 446.418 328.753C445.368 326.795 443.805 324.904 441.592 323.155C441.592 323.155 430.242 316.283 420.987 316.843C420.987 316.843 428.159 328.869 430.177 336.016C430.891 338.535 430.962 340.448 429.858 341.017C428.649 341.642 427.084 339.829 425.465 336.919C421.409 329.633 417.014 315.462 417.014 315.462C417.014 315.462 410.19 314.8 402.424 314.7C398.939 314.655 395.266 314.723 391.934 315.015C388.255 315.337 384.997 315.935 382.877 316.953C382.877 316.953 383.341 317.332 384.12 317.983C385.277 318.954 387.134 320.528 389.197 322.353C395.322 327.771 403.281 335.41 400.306 336.098C397.898 336.655 390.338 332.163 383.61 327.706C377.347 323.559 371.808 319.438 371.808 319.438C371.808 319.438 347.77 323.529 349.053 338.193Z" fill="#81B477"/>
<path d="M360.863 338.586C360.863 338.586 426.153 336.07 440.571 354.743C440.571 354.743 443.76 364.292 453.572 372.989L455.102 377.157C455.102 377.157 443.788 365.228 439.74 364.506C439.74 364.506 446.071 341.373 360.863 338.586Z" fill="#81B477"/>
<path d="M450.839 372.879C451.399 373.493 452.237 374.328 453.437 375.435L453.463 375.46C453.879 375.845 454.283 376.261 454.677 376.702C455.282 377.373 455.863 378.106 456.417 378.887L459.469 378.881C456.327 375.015 453.584 372.985 453.584 372.985C453.584 372.985 453.582 372.982 453.576 372.98C453.338 372.837 447.714 369.437 450.839 372.879Z" fill="#81B477"/>
<path d="M525.716 326.264C525.716 326.264 499.376 311.513 511.668 291.493C511.668 291.493 521.502 279.201 532.039 276.04C532.039 276.04 526.419 305.893 532.039 306.596C537.658 307.298 535.902 272.879 535.902 272.879C535.902 272.879 563.648 259.533 574.535 260.586C574.535 260.586 557.326 289.737 562.945 289.035C568.565 288.332 587.881 258.83 587.881 258.83C587.881 258.83 616.33 253.562 620.895 270.42C625.461 287.279 618.086 295.708 613.871 296.762C609.657 297.815 582.613 297.464 583.316 300.976C584.018 304.488 602.281 310.107 612.466 306.947C612.466 306.947 601.227 334.693 586.477 333.288C571.726 331.883 567.16 322.751 558.028 322.049C548.897 321.347 542.223 323.805 546.79 326.263C551.355 328.722 566.809 327.069 574.184 333.34C581.56 339.61 587.53 343.473 573.833 346.283C560.136 349.093 535.55 347.337 530.633 336.8C525.716 326.264 525.716 326.264 525.716 326.264Z" fill="#AAD3A2"/>
<path d="M607.906 275.688C607.906 275.688 534.152 299.57 525.722 326.262C525.722 326.262 526.074 338.204 518.698 351.901V357.169C518.698 357.169 526.425 339.257 530.639 336.799C530.639 336.799 514.132 313.619 607.906 275.688Z" fill="#81B477"/>
<path d="M511.862 374.648L516.076 374.639C516.209 368.543 516.914 361.699 518.994 356.486C518.994 356.483 518.994 356.483 518.994 356.483C519.254 355.829 519.535 355.203 519.841 354.606C519.843 354.6 519.846 354.592 519.849 354.586C520.724 352.874 521.315 351.611 521.689 350.697L521.691 350.695C523.848 345.407 518.694 351.9 518.694 351.9C518.694 351.9 512.513 361.288 511.862 374.648Z" fill="#81B477"/>
<path d="M483.813 305.917C483.813 305.917 518.536 286.472 502.332 260.083C502.332 260.083 489.369 243.88 475.48 239.713C475.48 239.713 482.888 279.065 475.48 279.991C468.073 280.917 470.388 235.546 470.388 235.546C470.388 235.546 433.813 217.953 419.462 219.343C419.462 219.343 442.147 257.769 434.74 256.843C427.332 255.917 401.869 217.027 401.869 217.027C401.869 217.027 364.369 210.083 358.351 232.305C352.332 254.528 362.054 265.639 367.61 267.028C373.165 268.417 408.814 267.954 407.887 272.583C406.961 277.213 382.887 284.621 369.461 280.454C369.461 280.454 384.276 317.028 403.72 315.177C423.165 313.325 429.184 301.288 441.221 300.361C453.258 299.435 462.054 302.676 456.036 305.917C450.017 309.158 429.647 306.979 419.925 315.245C410.202 323.51 402.332 328.602 420.387 332.306C438.443 336.01 470.851 333.695 477.332 319.806C483.813 305.917 483.813 305.917 483.813 305.917Z" fill="#AAD3A2"/>
<path d="M375.477 239.246C375.477 239.246 472.7 270.728 483.811 305.914C483.811 305.914 483.348 321.655 493.07 339.71V346.655C493.07 346.655 482.885 323.043 477.33 319.803C477.33 319.803 499.089 289.247 375.477 239.246Z" fill="#81B477"/>
<path d="M489.108 338.112C489.111 338.117 489.114 338.12 489.114 338.123C489.606 339.332 490.388 341.002 491.542 343.263C491.545 343.269 491.548 343.271 491.551 343.277C491.953 344.061 492.321 344.888 492.663 345.745C492.666 345.745 492.666 345.748 492.666 345.751C495.994 354.092 496.654 365.603 496.529 374.674L502.108 374.663C502.773 354.458 493.062 339.708 493.062 339.708C493.062 339.708 493.062 339.708 493.06 339.706C492.911 339.521 486.303 331.234 489.108 338.112Z" fill="#81B477"/>
</g>
<path d="M803.045 331.565L817.343 190.363H857.873C857.873 190.363 875.842 191.58 869.391 221.751C862.941 251.923 841.747 313.069 848.197 331.565L803.045 331.565Z" fill="#DFDFDF"/>
<path d="M725.784 300.782C731.15 274.44 739.787 230.006 744.367 206.333C746.161 197.059 754.28 190.363 763.726 190.363H827.479C839.717 190.363 849 201.395 846.908 213.453L829.25 315.216C827.47 325.478 818.015 332.585 807.663 331.445L742.947 324.315C731.417 323.045 723.468 312.148 725.784 300.782Z" fill="#E8E8E8"/>
<path d="M602.305 292.389C608.362 289.514 661.27 286.489 665.736 284.857C670.2 283.234 703.599 221.722 709.442 218.187C709.442 218.187 709.446 218.184 709.451 218.181C709.928 217.894 710.461 217.632 711.037 217.39C718.124 214.169 748.894 203.349 804.314 226.683C804.314 226.683 806.084 253.015 803.057 281.053C799.513 313.929 789.378 349.153 762.075 346.947C760.84 346.852 759.634 346.742 758.448 346.625C710.88 342.225 698.863 329.395 698.863 329.395L702.649 289.597C702.648 289.599 702.647 289.599 702.646 289.601C702.646 289.601 702.646 289.601 702.636 289.608C690.987 302.154 679.409 312.352 676.643 313.151C671.249 314.704 615.09 311.025 605.647 306.642C596.215 302.259 602.305 292.389 602.305 292.389Z" fill="#47C7F4"/>
<path d="M758.446 346.627C759.632 346.743 760.837 346.853 762.073 346.949C789.375 349.154 799.511 313.932 803.055 281.055C799.755 282.679 754.997 305.458 758.446 346.627Z" fill="#00A2DB"/>
<path d="M782.652 315.946C782.652 315.946 773.026 309.698 769.84 310.267C766.653 310.836 753.622 314.663 751.831 316.794C749.039 320.117 744.11 325.396 746.918 325.956C749.726 326.517 774.513 327.76 777.37 327.515C780.227 327.27 786.886 324.486 782.652 315.946Z" fill="#FFB792"/>
<path d="M792.625 222.836C792.625 222.836 812.718 227.333 822.778 238.886C831.922 249.387 858.407 300.657 865.696 319.1C866.857 322.037 863.589 328.428 860.961 330.177C854.377 334.559 840.823 337.739 807.29 332.208L777.313 327.837C777.313 327.837 775.954 317.696 782.47 314.889L830.182 310.891C830.182 310.891 802.379 282.117 797.009 273.845C791.638 265.572 792.625 222.836 792.625 222.836Z" fill="#47C7F4"/>
<path d="M846.572 279.078C839.379 287.231 836.661 289.629 836.661 289.629L820.356 300.659L830.182 310.889C816.999 308.812 778.953 313.607 778.953 313.607L773.838 323.838C807.371 329.369 854.377 334.557 860.961 330.175C863.589 328.425 866.857 322.034 865.696 319.098C858.407 300.655 855.717 289.579 846.572 279.078Z" fill="#FFB792"/>
<path d="M605.644 306.646C615.087 311.03 671.245 314.709 676.64 313.156C679.406 312.357 690.984 302.159 702.633 289.613C702.058 289.689 683.731 292.298 672.442 302.058C672.442 302.058 666.081 304.889 648.771 303.304C631.46 301.72 609.229 301.137 605.644 306.646Z" fill="#00A2DB"/>
<path d="M751.83 234.904C751.83 234.904 750.84 249.506 749.299 257.187C749.299 257.187 752.183 258.234 755.149 257.435C755.149 257.435 753.429 260.052 748.051 258.341C748.051 258.341 750.991 243.255 751.83 234.904Z" fill="#3288A1"/>
<path d="M752.622 232.659C749.78 230.14 748.425 223.396 748.016 220.593C747.611 217.789 754.492 210.538 754.492 210.538C754.492 210.538 742.869 211.275 741.877 212.62C740.886 213.966 736.058 222.988 736.346 227.952C736.632 232.917 738.162 239.602 740.202 242.387C742.241 245.171 743.438 240.138 744.675 238.17C746.283 235.615 748.509 232.829 752.622 232.659Z" fill="white"/>
<path d="M742.576 214.587L742.59 218.065C742.59 218.065 741.625 228.939 755.015 230.548C768.405 232.161 778.56 226.343 778.21 217.95C777.014 211.45 775.696 206.986 775.615 201.609C775.585 199.611 775.725 197.49 776.101 195.097L750.152 194.539L742.507 195.776L742.576 214.587Z" fill="#FFB792"/>
<path d="M742.499 195.769L742.569 214.58C745.324 215.866 748.433 216.653 751.92 216.658C763.847 216.677 775.718 197.483 776.094 195.09L742.499 195.769Z" fill="#F2AC8C"/>
<path d="M776.349 213.316C776.531 216.585 772.288 222.101 765.796 225.974C759.304 229.846 753.71 231.415 753 233.031C756.082 233.545 758.866 234.898 761.158 239.588C763.348 244.065 763.326 244.209 770.819 239.588C778.315 234.965 785.016 224.357 785 220.823C784.984 217.29 779.11 210.455 776.226 211.035L776.349 213.316Z" fill="white"/>
<path d="M740.98 204.911C740.98 204.911 774.205 211.676 778.1 190.92C781.994 170.164 788.906 157.058 767.857 151.861C746.808 146.664 741.188 153.809 738.203 160.42C735.218 167.033 732.438 202.616 740.98 204.911Z" fill="#FFB792"/>
<path d="M731.769 144.988C731.769 144.988 741.038 144.289 751.977 139.553C760.855 135.709 772.043 139.975 775.673 141.895C775.576 141.309 775.344 140.51 774.79 139.707C774.79 139.707 776.42 140.866 776.658 142.484C776.826 142.608 776.901 142.694 776.857 142.722C776.857 142.722 778.707 142.387 779.894 142.923C779.894 142.923 779.063 142.803 778.765 143.338C778.734 143.394 778.687 143.442 778.632 143.484C792.462 150.193 794.419 175.526 789.957 180.58C784.59 186.661 775.628 200.302 775.628 200.302C775.628 200.302 775.092 193.664 776.075 188.307C777.058 182.95 772.43 182.943 766.588 180.498C760.745 178.053 765.628 171.241 760.519 167.092C755.411 162.943 745.393 165.788 736.9 162.184C729.943 159.637 731.768 145.701 731.769 144.988Z" fill="#233862"/>
<path d="M661.002 251.992H561.744L585.552 321.913H685.453L661.002 251.992Z" fill="#D5D5D5"/>
<path d="M659.547 251.992L684 321.914H584.098L560.29 251.992H659.547Z" fill="white"/>
<path d="M537.255 377.999H936.336L926.039 349.528C920.043 332.951 904.305 321.91 886.675 321.91H575.269C562.295 321.91 550.888 330.501 547.305 342.974L537.255 377.999Z" fill="#D8782F"/>
<path d="M613.675 377.999H842.782L843.225 363.649C843.929 340.957 833.167 321.91 819.641 321.91H636.298C628.576 321.91 621.787 330.501 619.657 342.974L613.675 377.999Z" fill="#F0A250"/>
<path d="M457.522 377.999H692.593C705.647 355.346 717.538 334.924 725.383 321.91H495.531C482.557 321.91 471.15 330.501 467.573 342.974L457.522 377.999Z" fill="#EC9746"/>
</svg>
