<svg width="500" height="88" viewBox="0 0 500 88" fill="none" xmlns="http://www.w3.org/2000/svg">
<g opacity="0.6">
<path d="M265.53 30.71L259.99 43.67L0 -84.9V-108H81.35L265.53 30.71Z" fill="url(#paint0_linear_4307_15962)"/>
<path d="M259.99 43.6681L255.24 53.3881L0 -23.8019V-48.1719L259.99 43.6681Z" fill="url(#paint1_linear_4307_15962)"/>
<path d="M500.001 -108V-84.53L317.621 39.19L309.051 45L300.401 50.87L293.891 43.28L305.581 33.95L308.131 31.91L308.141 31.9L483.411 -108H500.001Z" fill="url(#paint2_linear_4307_15962)"/>
<path d="M255.24 53.3905V62.0305H0V30.2305L255.24 53.3905Z" fill="url(#paint3_linear_4307_15962)"/>
<path d="M275.4 24.23L274.84 24.61V24.62L265.91 30.71L146.07 -108H189.17L273.94 21.99L275.4 24.23Z" fill="url(#paint4_linear_4307_15962)"/>
<path d="M264.22 77.0419L263.79 77.2719L261.64 78.3919L0 215.122V182.212L254.15 75.9019H254.17L257.1 74.6719L258.18 75.0319H258.19L263.39 76.7619L263.72 76.8719L264.22 77.0419Z" fill="url(#paint5_linear_4307_15962)"/>
<path d="M7.01562 315.162L263.666 76.5078L265.532 87.6698L20.8006 331.678L7.01562 315.162Z" fill="url(#paint6_linear_4307_15962)"/>
<path d="M273.658 86.6981L270.927 92.2281L122.857 391.998H94.1875L265.337 87.8581L265.508 87.5481L268.448 82.3281L272.568 85.7881L273.658 86.6981Z" fill="url(#paint7_linear_4307_15962)"/>
<path d="M273.66 71.7113L258.19 75.0312L254.17 75.9013L0 130.491V82.6613L273.44 62.0312L273.66 71.7113Z" fill="url(#paint8_linear_4307_15962)"/>
<path d="M500 55.7891V79.8791L330.89 68.6791L308.75 67.2091L300.71 66.6791L298.46 66.5291L295.32 66.3191L295.16 66.3091L292.92 66.1591L290.16 65.9791L289.84 65.9591L289.57 57.3691L293.34 57.3391L297.94 57.3091L312.96 57.1891L335.11 57.0291L500 55.7891Z" fill="url(#paint9_linear_4307_15962)"/>
<path d="M500.002 122.358V162.248L321.282 78.7081L300.242 68.8681L300.712 66.6781L301.932 60.9681L302.232 59.5781L315.022 63.6381L316.132 63.9881L330.892 68.6781L500.002 122.358Z" fill="url(#paint10_linear_4307_15962)"/>
<path d="M286.889 27.47H275.809L274.839 24.62L273.939 21.99L229.539 -108H268.659L286.589 25.22L286.889 27.47Z" fill="url(#paint11_linear_4307_15962)"/>
<path d="M347.793 -108L299.693 30.71H285.453L286.123 27.47L286.593 25.22V25.21L314.173 -108H347.793Z" fill="url(#paint12_linear_4307_15962)"/>
<path d="M408.869 -108L308.139 31.9L306.669 33.95H297.969L391.699 -108H408.869Z" fill="url(#paint13_linear_4307_15962)"/>
<path d="M500.003 -44.4102V-3.49016L335.113 57.0298L316.133 63.9898L315.243 64.3198L315.023 63.6398L312.963 57.1898L309.053 44.9998L308.523 43.3598L317.623 39.1898L500.003 -44.4102Z" fill="url(#paint14_linear_4307_15962)"/>
<path d="M338.977 392.001H321.307L288.907 87.0312L287.867 77.1712L286.977 68.8213L290.157 65.9813L293.047 63.4013V63.3913L294.577 62.0312L295.157 66.3112L295.257 67.1113L296.617 77.2213V77.2313L296.717 77.9413L338.977 392.001Z" fill="url(#paint15_linear_4307_15962)"/>
<path d="M499.997 242.572V308.852L308.557 90.8117L296.617 77.2217L296.447 77.0317L292.617 72.6617L292.917 66.1617L293.047 63.3917L293.337 57.3417L293.527 53.2617L297.937 57.3117L301.927 60.9717L308.747 67.2117L321.277 78.7117L499.997 242.572Z" fill="url(#paint16_linear_4307_15962)"/>
<path d="M433.837 392H388.527L296.717 77.9395L296.457 77.0395L296.448 77.0295L294.938 71.8495L295.258 67.1095L295.318 66.3195L295.747 60.0195L298.457 66.5295L308.557 90.8095L433.837 392Z" fill="url(#paint17_linear_4307_15962)"/>
<path d="M290.212 77.6419L288.912 87.0319L246.832 392.002H194.602L270.932 92.2319L272.572 85.7919L275.402 74.6719L287.872 77.1719L290.212 77.6419Z" fill="url(#paint18_linear_4307_15962)"/>
</g>
<path d="M288 76C305.673 76 320 61.6731 320 44C320 26.3269 305.673 12 288 12C270.327 12 256 26.3269 256 44C256 61.6731 270.327 76 288 76Z" fill="#FFC340"/>
<path d="M166 76.9865H346.639C337.021 70.1805 328.582 65.8175 323.05 67.4815C320.38 68.3565 318.031 67.8735 316.733 65.5725C306.401 49.5855 294.096 48.2525 286.219 54.4485C285.704 54.8535 283.63 55.8465 281.616 54.9085C273.041 51.1035 249.465 37.8165 237.552 53.6075C237 54.3395 235.592 55.5835 233.266 54.6245C220.359 48.7235 208.675 53.6535 206.431 64.6055C206.032 65.8205 205.699 68.9505 201.42 68.1055C183.971 64.6525 166 76.9865 166 76.9865Z" fill="white"/>
<path d="M336.167 70.4274C334.177 71.3234 332.138 72.0574 329.95 72.3174C327.034 72.6634 324.001 72.3784 321.095 72.0514C318.149 71.7194 315.188 71.3174 312.295 70.6654C306.705 69.4054 301.275 67.4784 295.616 66.5204C292.799 66.0434 289.925 65.8274 287.074 66.0984C284.082 66.3824 281.265 67.2944 278.522 68.4854C276.204 69.4924 273.898 70.4594 271.361 70.7214C268.938 70.9724 266.466 70.8204 264.056 70.5064C261.678 70.1974 259.399 69.6374 257.158 68.7824C254.954 67.9424 252.806 66.9404 250.522 66.3264C247.993 65.6464 245.379 65.5374 242.807 66.0374C240.525 66.4804 238.345 67.3024 236.139 68.0144C231.815 69.4094 226.848 70.1104 222.826 67.4364C219.287 65.0834 218.634 60.7344 218.675 56.8004C218.691 55.3004 218.816 53.8334 219.135 52.3984C212.645 53.5284 207.794 57.9534 206.431 64.6064C206.032 65.8214 205.699 68.9514 201.42 68.1064C183.971 64.6534 166 76.9864 166 76.9864H346.64C342.941 74.3684 339.419 72.1174 336.167 70.4274Z" fill="#DCFFFF"/>
<defs>
<linearGradient id="paint0_linear_4307_15962" x1="9.0904" y1="-115.333" x2="273.405" y2="42.6885" gradientUnits="userSpaceOnUse">
<stop offset="0.3624" stop-color="white" stop-opacity="0"/>
<stop offset="1" stop-color="white"/>
</linearGradient>
<linearGradient id="paint1_linear_4307_15962" x1="0" y1="2.60813" x2="259.99" y2="2.60813" gradientUnits="userSpaceOnUse">
<stop offset="0.3624" stop-color="white" stop-opacity="0"/>
<stop offset="1" stop-color="white"/>
</linearGradient>
<linearGradient id="paint2_linear_4307_15962" x1="518.266" y1="-117.054" x2="271.144" y2="76.3721" gradientUnits="userSpaceOnUse">
<stop offset="0.3624" stop-color="white" stop-opacity="0"/>
<stop offset="1" stop-color="white"/>
</linearGradient>
<linearGradient id="paint3_linear_4307_15962" x1="0" y1="46.1305" x2="255.24" y2="46.1305" gradientUnits="userSpaceOnUse">
<stop offset="0.3624" stop-color="white" stop-opacity="0"/>
<stop offset="1" stop-color="white"/>
</linearGradient>
<linearGradient id="paint4_linear_4307_15962" x1="155.586" y1="-123.753" x2="269.272" y2="25.0709" gradientUnits="userSpaceOnUse">
<stop offset="0.3624" stop-color="white" stop-opacity="0"/>
<stop offset="1" stop-color="white"/>
</linearGradient>
<linearGradient id="paint5_linear_4307_15962" x1="0" y1="144.897" x2="264.22" y2="144.897" gradientUnits="userSpaceOnUse">
<stop offset="0.3624" stop-color="white" stop-opacity="0"/>
<stop offset="1" stop-color="white"/>
</linearGradient>
<linearGradient id="paint6_linear_4307_15962" x1="21.2132" y1="190.329" x2="250.886" y2="216.449" gradientUnits="userSpaceOnUse">
<stop offset="0.3624" stop-color="white" stop-opacity="0"/>
<stop offset="1" stop-color="white"/>
</linearGradient>
<linearGradient id="paint7_linear_4307_15962" x1="94.1875" y1="237.163" x2="273.658" y2="237.163" gradientUnits="userSpaceOnUse">
<stop offset="0.3624" stop-color="white" stop-opacity="0"/>
<stop offset="1" stop-color="white"/>
</linearGradient>
<linearGradient id="paint8_linear_4307_15962" x1="0" y1="96.2613" x2="273.66" y2="96.2613" gradientUnits="userSpaceOnUse">
<stop offset="0.3624" stop-color="white" stop-opacity="0"/>
<stop offset="1" stop-color="white"/>
</linearGradient>
<linearGradient id="paint9_linear_4307_15962" x1="510.29" y1="85.9445" x2="274.517" y2="34.71" gradientUnits="userSpaceOnUse">
<stop offset="0.3624" stop-color="white" stop-opacity="0"/>
<stop offset="1" stop-color="white"/>
</linearGradient>
<linearGradient id="paint10_linear_4307_15962" x1="523.016" y1="152.794" x2="280.054" y2="42.0389" gradientUnits="userSpaceOnUse">
<stop offset="0.3624" stop-color="white" stop-opacity="0"/>
<stop offset="1" stop-color="white"/>
</linearGradient>
<linearGradient id="paint11_linear_4307_15962" x1="246.889" y1="-117.625" x2="278.501" y2="20.0635" gradientUnits="userSpaceOnUse">
<stop offset="0.3624" stop-color="white" stop-opacity="0"/>
<stop offset="1" stop-color="white"/>
</linearGradient>
<linearGradient id="paint12_linear_4307_15962" x1="339.667" y1="-138.955" x2="278.501" y2="79.0836" gradientUnits="userSpaceOnUse">
<stop offset="0.3624" stop-color="white" stop-opacity="0"/>
<stop offset="1" stop-color="white"/>
</linearGradient>
<linearGradient id="paint13_linear_4307_15962" x1="410.835" y1="-122.962" x2="285.705" y2="54.4812" gradientUnits="userSpaceOnUse">
<stop offset="0.3624" stop-color="white" stop-opacity="0"/>
<stop offset="1" stop-color="white"/>
</linearGradient>
<linearGradient id="paint14_linear_4307_15962" x1="514.858" y1="-30.429" x2="275.437" y2="73.9942" gradientUnits="userSpaceOnUse">
<stop offset="0.3624" stop-color="white" stop-opacity="0"/>
<stop offset="1" stop-color="white"/>
</linearGradient>
<linearGradient id="paint15_linear_4307_15962" x1="349.646" y1="347.59" x2="252.873" y2="67.8055" gradientUnits="userSpaceOnUse">
<stop offset="0.3624" stop-color="white" stop-opacity="0"/>
<stop offset="1" stop-color="white"/>
</linearGradient>
<linearGradient id="paint16_linear_4307_15962" x1="528.096" y1="302.807" x2="255.442" y2="39.8909" gradientUnits="userSpaceOnUse">
<stop offset="0.3624" stop-color="white" stop-opacity="0"/>
<stop offset="1" stop-color="white"/>
</linearGradient>
<linearGradient id="paint17_linear_4307_15962" x1="441.764" y1="391.692" x2="249.45" y2="71.8657" gradientUnits="userSpaceOnUse">
<stop offset="0.3624" stop-color="white" stop-opacity="0"/>
<stop offset="1" stop-color="white"/>
</linearGradient>
<linearGradient id="paint18_linear_4307_15962" x1="256.217" y1="329.837" x2="217.697" y2="64.8192" gradientUnits="userSpaceOnUse">
<stop offset="0.3624" stop-color="white" stop-opacity="0"/>
<stop offset="1" stop-color="white"/>
</linearGradient>
</defs>
</svg>
