<svg width="154" height="130" viewBox="0 0 154 130" fill="none" xmlns="http://www.w3.org/2000/svg">
<g clip-path="url(#clip0_4318_31730)">
<path opacity="0.2" d="M153 27.9622L56.8313 1L55.6513 5.26125L51.9239 4.32681L51.0682 7.7425L50.858 8.58317L49.396 8.21624L14 149.498L119.658 176L135.173 114.075L132.524 111.299L153 27.9622Z" fill="#4D4D4D"/>
<path d="M129.295 125.363L35.9219 103.039L60.7672 -0.0664062L154.141 22.2572L129.295 125.363Z" fill="white"/>
<path d="M35.9219 103.039L129.04 125.301L151.073 22.801L60.1482 2.50391L35.9219 103.039Z" fill="#E1E1E3"/>
<path d="M150.139 23.3876L56.2734 3.20703L33.9808 106.896L127.847 127.077L150.139 23.3876Z" fill="white"/>
<path d="M55.5815 6.43359L53.6406 15.465L56.0759 34.9865L133.684 99.9278L133.982 98.5462L129.586 92.9795L144.249 24.7608L55.5815 6.43359Z" fill="#E1E1E3"/>
<path d="M128.089 93.8737L142.682 25.9866L54.0289 6.92969L25.3438 140.379L125.202 161.845L137.776 103.352L128.089 93.8737Z" fill="#6E72FF"/>
<path d="M83.2482 17.6432L62.5781 13.1992L61.4003 18.6777L82.0703 23.1217L83.2482 17.6432Z" fill="white"/>
<path d="M110.812 122.804L56.2734 111.078L51.776 131.997L106.314 143.722L110.812 122.804Z" fill="white"/>
<path d="M69.077 118.457L62.0625 116.949L61.7061 118.607L68.7206 120.115L69.077 118.457Z" fill="#E1E1E3"/>
<path d="M102.379 129.172L61.3359 120.348L60.9167 122.298L101.96 131.122L102.379 129.172Z" fill="#E1E1E3"/>
<path d="M101.653 132.539L60.6094 123.715L60.1902 125.665L101.234 134.489L101.653 132.539Z" fill="#E1E1E3"/>
<path d="M59.8958 127.081L59.4766 129.031L81.4481 133.755L81.8673 131.805L59.8958 127.081Z" fill="#E1E1E3"/>
<path opacity="0.2" d="M47.009 81.5625C39.2043 84.3595 37.4036 86.7557 36.7698 88.3744C36.589 88.4387 36.4073 88.5028 36.2279 88.5663L34.9649 88.977L34.9584 88.9559L31.4171 90.1073L31.4242 90.128L30.1618 90.5383C29.9793 90.5922 29.7937 90.6469 29.6091 90.7019C28.1448 89.7662 25.2788 88.8868 17.3216 91.2145C9.33443 93.5505 3.66596 97.2922 3.66596 97.2922L4.5863 101.497C4.5863 101.497 5.20239 101.446 5.72573 101.796C6.15577 102.084 6.89077 103.46 8.52738 106.239C8.55631 106.289 8.59024 106.345 8.61956 106.395C7.52558 107.618 6.76128 108.505 6.63736 108.719C6.16125 109.544 7.77339 111.067 8.83977 110.572C9.05606 110.472 9.56914 109.906 10.2643 109.064C12.8092 112.63 16.8071 114.235 21.8203 112.605C27.2059 110.854 30.4291 109.434 31.4415 104.192C31.8725 101.958 32.0225 100.05 32.0529 98.5911C32.0943 96.6246 31.9196 95.4763 31.9196 95.4763C31.2082 94.7756 31.2167 94.0763 31.6267 93.4687C32.0243 93.3334 32.3911 93.2078 32.7094 93.098C33.1933 92.9312 33.6835 92.7526 34.1753 92.5695C34.6808 92.4281 35.1823 92.2846 35.6719 92.1349C35.9943 92.036 36.3648 91.9224 36.7656 91.7986C37.4546 92.0489 37.8728 92.6096 37.7096 93.594C37.7096 93.594 38.2439 94.6254 39.434 96.1912C40.3173 97.3532 41.5604 98.8085 43.2226 100.361C47.1242 104.005 50.5662 103.259 55.9525 101.507C60.965 99.8777 63.2554 96.229 63.2165 91.8484C64.274 92.121 65.0211 92.2755 65.2551 92.23C66.4096 92.0034 66.8178 89.8239 65.9473 89.4367C65.7207 89.336 64.5809 89.0674 62.9775 88.7224C62.9719 88.6642 62.9663 88.5988 62.9605 88.5417C62.6497 85.3323 62.4348 83.7871 62.6126 83.3007C62.8299 82.7094 63.3582 82.3883 63.3582 82.3883L61.6301 78.4468C61.6283 78.447 54.843 78.755 47.009 81.5625ZM44.1544 84.6867C46.5689 83.6078 52.3432 81.1281 55.9873 81.42C53.9178 82.1758 50.8521 83.2948 46.29 84.9599C44.3486 85.6689 42.4699 86.3445 40.6549 86.9925C41.552 86.0458 42.8028 85.2908 44.1544 84.6867ZM15.6243 98.8473C13.8306 100.716 11.7231 102.978 9.99469 104.874C9.43308 103.566 9.03241 102.261 8.79668 101.125C10.1187 100.685 12.6474 99.8414 15.6243 98.8473ZM21.4672 92.0632C22.916 91.7565 24.3713 91.6323 25.6533 91.8704C23.8053 92.4133 21.8883 92.972 19.9004 93.5403C15.2318 94.8761 12.094 95.7736 9.97543 96.3797C12.7517 94.0004 18.8801 92.61 21.4672 92.0632ZM29.3042 94.8749C29.7187 95.9607 30.0518 97.5123 30.2134 99.1896C30.5397 102.574 30.1574 106.48 28.2663 108.165C25.4385 110.685 18.3117 113.263 14.2904 110.625C13.1866 109.901 12.236 108.824 11.4399 107.603C13.9367 104.437 17.5432 99.6196 19.5553 97.5341C22.8853 96.4199 26.339 95.2607 29.0665 94.3384C29.1508 94.5079 29.2316 94.6849 29.3042 94.8749ZM60.8759 95.4773C59.1744 99.9756 51.8949 102.082 48.1257 101.707C45.6048 101.456 42.9992 98.5221 41.2729 95.5932C40.4174 94.1414 39.7736 92.6915 39.47 91.5692C39.4168 91.3729 39.3788 91.1825 39.3479 90.9951C42.0962 90.1369 45.5711 89.0425 48.9197 87.9858C51.7732 88.4892 57.524 90.2645 61.4044 91.357C61.4783 92.8132 61.3423 94.2424 60.8759 95.4773ZM60.9666 88.3009C58.4542 87.7846 55.4187 87.1938 52.8692 86.7373C55.8622 85.7906 58.4031 84.9852 59.7305 84.5643C60.2085 85.6208 60.652 86.9131 60.9666 88.3009Z" fill="#4D4D4D"/>
<path d="M62.4369 82.193C62.4369 82.193 43.1392 88.3186 37.3841 90.0783C31.629 91.8379 24.4793 92.9713 22.1614 94.6558C19.843 96.3397 11.6191 108.021 10.5521 108.517C9.48506 109.013 7.87356 107.49 8.34968 106.665C8.82579 105.84 18.6762 95.156 20.8051 93.3472C22.9339 91.5384 34.0306 88.0052 48.0033 82.9035C61.977 77.8021 61.977 77.8021 61.977 77.8021L62.4369 82.193Z" fill="#3B3839"/>
<path d="M9.52077 99.3933C9.52077 99.3933 28.731 92.9983 34.4202 91.0375C40.1096 89.0757 46.5585 85.7879 49.4245 85.7868C52.2899 85.786 65.8107 90.3965 66.9652 90.1699C68.1197 89.9433 68.5279 87.7638 67.6574 87.3766C66.787 86.9894 52.5371 84.1416 49.7514 83.9311C46.9656 83.7206 35.9135 87.3884 21.6122 91.4801C7.3109 95.5719 7.3109 95.5719 7.3109 95.5719L9.52077 99.3933Z" fill="#454545"/>
<path d="M33.1253 88.0502L33.6641 89.707L37.2059 88.5553L36.6671 86.8984L33.1253 88.0502Z" fill="#456C59"/>
<path d="M10.305 96.4235C10.9386 92.7323 19.9062 90.6966 23.1801 90.0044C26.454 89.3122 29.7648 89.5381 31.0171 92.8161C31.4317 93.9019 31.764 95.4539 31.9259 97.1301L33.7648 96.532C33.8062 94.5655 33.6315 93.4172 33.6315 93.4172C32.1533 91.9626 33.7651 90.5083 35.6838 89.8844C37.6026 89.2605 39.7614 89.4893 39.4215 91.5349C39.4215 91.5349 39.9558 92.5663 41.1459 94.1322L42.9847 93.5341C42.1293 92.0824 41.4855 90.6324 41.1819 89.5101C40.2668 86.1225 42.8125 83.9929 45.867 82.6272C48.9214 81.2616 57.3715 77.6347 60.0552 80.2471C61.0118 81.1783 62.2947 83.9963 62.8561 87.0724L64.6713 86.4824C64.3601 83.2723 64.1452 81.7272 64.3235 81.2414C64.5403 80.6494 65.069 80.3289 65.069 80.3289L63.3409 76.3875C63.3409 76.3875 56.5555 76.6955 48.7221 79.5026C40.8888 82.3098 39.1021 84.7144 38.4745 86.333L34.9064 87.4934L31.3383 88.6538C29.8789 87.7143 27.0199 86.8199 19.0332 89.1565C11.046 91.4925 5.37757 95.2341 5.37757 95.2341L6.2979 99.4385C6.2979 99.4385 6.914 99.3875 7.43773 99.7383C7.86778 100.027 8.60277 101.403 10.2387 104.182L12.0539 103.592C10.6979 100.773 10.0785 97.7396 10.305 96.4235Z" fill="#505050"/>
<g opacity="0.4">
<path d="M31.0207 92.8158C29.7694 89.5381 26.4576 89.3119 23.1837 90.0041C19.9098 90.6963 10.9429 92.7316 10.3086 96.4232C10.082 97.7393 10.7021 100.772 12.057 103.591C13.0153 105.585 14.3395 107.472 16.0051 108.566C20.0264 111.204 27.1533 108.626 29.9811 106.106C31.8722 104.421 32.2545 100.515 31.9282 97.1306C31.7683 95.4532 31.4363 93.9019 31.0207 92.8158Z" fill="white"/>
</g>
<g opacity="0.4">
<path d="M60.0545 80.2475C57.3708 77.6352 48.9207 81.262 45.8662 82.6277C42.8118 83.9933 40.2661 86.123 41.1812 89.5106C41.4848 90.6329 42.1279 92.0832 42.984 93.5345C44.7114 96.4637 47.317 99.398 49.8368 99.6484C53.606 100.024 60.8862 97.9165 62.5871 93.4187C63.2917 91.5548 63.2522 89.2498 62.8552 87.0739C62.294 83.9967 61.0111 81.1788 60.0545 80.2475Z" fill="white"/>
</g>
<path d="M23.5368 110.546C28.9224 108.795 32.1456 107.375 33.158 102.133C33.589 99.9 33.7389 97.9921 33.7694 96.5328L31.9305 97.1309C32.2568 100.516 31.8746 104.421 29.9835 106.106C27.1556 108.626 20.0288 111.204 16.0075 108.566C14.3416 107.474 13.018 105.586 12.0594 103.592L10.2443 104.182C10.5981 104.782 10.992 105.446 11.4365 106.182C13.9351 110.318 18.1513 112.297 23.5368 110.546Z" fill="#505050"/>
<path d="M62.5903 93.4189C60.8895 97.9167 53.6093 100.024 49.8401 99.6485C47.3192 99.3979 44.7136 96.4637 42.9873 93.5347L41.1484 94.1328C42.0317 95.2947 43.2748 96.7501 44.937 98.3026C48.8386 101.947 52.2806 101.2 57.6662 99.4493C63.0517 97.6983 65.2981 93.6184 64.8861 88.8024C64.8127 87.9464 64.7414 87.1784 64.6742 86.4837L62.8591 87.0737C63.2555 89.25 63.295 91.555 62.5903 93.4189Z" fill="#505050"/>
</g>
<defs>
<clipPath id="clip0_4318_31730">
<rect width="154" height="130" fill="white"/>
</clipPath>
</defs>
</svg>
